<?xml version="1.0" encoding="UTF-8"?>
<!DOCTYPE svg PUBLIC "-//W3C//DTD SVG 1.1//EN" "http://www.w3.org/Graphics/SVG/1.1/DTD/svg11.dtd">
<svg version="1.1" xmlns="http://www.w3.org/2000/svg" xmlns:xlink="http://www.w3.org/1999/xlink" x="0" y="0" width="32" height="32" viewBox="0, 0, 32, 32">
  <g id="Background">
    <rect x="0" y="0" width="32" height="32" fill="#000000" fill-opacity="0"/>
  </g>
  <g id="Layer_1">
    <g>
      <g id="_Group_" opacity="0.5">
        <path d="M30,16 C30,23.732 23.732,30 16,30 C8.268,30 2,23.732 2,16 C2,8.268 8.268,2 16,2 C23.732,2 30,8.268 30,16 z" fill="#1ED761"/>
      </g>
      <g opacity="0.6">
        <path d="M17.598,12.352 Q19.619,12.352 20.747,13.817 Q21.875,15.282 21.875,17.928 Q21.875,20.585 20.732,22.064 Q19.59,23.544 17.559,23.544 Q15.508,23.544 14.375,22.069 L14.219,22.069 L13.799,23.348 L12.08,23.348 L12.08,8.153 L14.375,8.153 L14.375,11.766 Q14.375,12.167 14.336,12.958 Q14.297,13.749 14.277,13.963 L14.375,13.963 Q15.469,12.352 17.598,12.352 z M17.002,14.227 Q15.615,14.227 15.005,15.043 Q14.395,15.858 14.375,17.772 L14.375,17.928 Q14.375,19.901 15,20.785 Q15.625,21.669 17.041,21.669 Q18.262,21.669 18.892,20.702 Q19.521,19.735 19.521,17.909 Q19.521,14.227 17.002,14.227 z" fill="#221F20"/>
      </g>
    </g>
  </g>
</svg>
