<?xml version="1.0" encoding="UTF-8"?>
<!DOCTYPE svg PUBLIC "-//W3C//DTD SVG 1.1//EN" "http://www.w3.org/Graphics/SVG/1.1/DTD/svg11.dtd">
<svg version="1.1" xmlns="http://www.w3.org/2000/svg" xmlns:xlink="http://www.w3.org/1999/xlink" x="0" y="0" width="32" height="32" viewBox="0, 0, 32, 32">
  <g id="Background">
    <rect x="0" y="0" width="32" height="32" fill="#000000" fill-opacity="0"/>
  </g>
  <g id="Layer_1">
    <g>
      <g id="_Group_" opacity="0.5">
        <path d="M30,16 C30,23.732 23.732,30 16,30 C8.268,30 2,23.732 2,16 C2,8.268 8.268,2 16,2 C23.732,2 30,8.268 30,16 z" fill="#F37B00"/>
      </g>
      <g opacity="0.6">
        <path d="M21.112,15.98 Q21.112,18.627 19.755,20.111 Q18.397,21.596 15.976,21.596 Q14.462,21.596 13.3,20.912 Q12.138,20.229 11.513,18.949 Q10.888,17.67 10.888,15.98 Q10.888,13.354 12.235,11.879 Q13.583,10.404 16.034,10.404 Q18.378,10.404 19.745,11.913 Q21.112,13.422 21.112,15.98 z M13.251,15.98 Q13.251,19.721 16.015,19.721 Q18.749,19.721 18.749,15.98 Q18.749,12.279 15.995,12.279 Q14.55,12.279 13.9,13.236 Q13.251,14.193 13.251,15.98 z" fill="#221F20"/>
      </g>
    </g>
  </g>
</svg>
