<?xml version="1.0" encoding="UTF-8"?>
<!DOCTYPE svg PUBLIC "-//W3C//DTD SVG 1.1//EN" "http://www.w3.org/Graphics/SVG/1.1/DTD/svg11.dtd">
<svg version="1.1" xmlns="http://www.w3.org/2000/svg" xmlns:xlink="http://www.w3.org/1999/xlink" x="0" y="0" width="32" height="32" viewBox="0, 0, 32, 32">
  <g id="Background">
    <rect x="0" y="0" width="32" height="32" fill="#000000" fill-opacity="0"/>
  </g>
  <g id="Layer_1">
    <path d="M0,16 C0,24.833 7.167,32 16,32 C24.833,32 32,24.833 32,16 C32,7.167 24.833,0 16,0 C7.167,0 0,7.128 0,16 z M1.666,16 C1.666,8.058 8.097,1.627 16,1.627 C23.903,1.627 30.334,8.058 30.334,16 C30.334,23.942 23.942,30.334 16,30.334 C8.058,30.334 1.666,23.903 1.666,16 z" fill="#FF7618"/>
    <path d="M16,6.47 C17.162,6.47 18.208,7.167 18.712,8.136 C18.441,8.291 18.208,8.484 17.976,8.717 C17.472,9.22 16.775,9.53 16.039,9.53 C15.303,9.53 14.605,9.259 14.102,8.717 C13.869,8.484 13.637,8.291 13.366,8.136 C13.792,7.167 14.838,6.47 16,6.47 z M18.983,9.143 C18.983,9.259 18.983,9.375 18.983,9.492 C18.983,11.429 20.571,12.978 22.47,12.978 C22.586,12.978 22.702,12.978 22.818,12.978 C22.741,13.094 22.625,13.211 22.547,13.327 C21.85,14.024 21.462,14.954 21.462,15.961 C21.462,16.969 21.85,17.898 22.547,18.596 C22.663,18.712 22.741,18.828 22.818,18.944 C22.702,18.944 22.586,18.944 22.47,18.944 C20.533,18.944 18.983,20.494 18.983,22.431 C18.983,22.547 18.983,22.663 18.983,22.78 C18.867,22.702 18.751,22.586 18.634,22.508 C17.937,21.811 17.007,21.424 16,21.424 C14.993,21.424 14.063,21.811 13.366,22.508 C13.249,22.625 13.133,22.702 13.017,22.78 C13.017,22.663 13.017,22.547 13.017,22.431 C13.017,20.494 11.467,18.944 9.53,18.944 C9.414,18.944 9.298,18.944 9.182,18.944 C9.259,18.828 9.375,18.712 9.453,18.596 C10.15,17.898 10.538,16.969 10.538,15.961 C10.538,14.954 10.15,14.024 9.453,13.327 C9.337,13.211 9.259,13.094 9.182,12.978 C9.298,12.978 9.414,12.978 9.53,12.978 C11.467,12.978 13.017,11.429 13.017,9.492 C13.017,9.375 13.017,9.259 13.017,9.143 C13.133,9.22 13.249,9.337 13.366,9.414 C14.063,10.111 14.993,10.499 16,10.499 C17.007,10.499 17.937,10.111 18.634,9.414 C18.751,9.337 18.867,9.259 18.983,9.143 z M23.826,13.288 C24.833,13.792 25.492,14.799 25.492,15.961 C25.492,17.123 24.794,18.169 23.826,18.634 C23.671,18.363 23.477,18.131 23.245,17.898 C22.741,17.395 22.431,16.697 22.431,15.961 C22.431,15.225 22.702,14.528 23.245,14.024 C23.477,13.792 23.671,13.559 23.826,13.288 z M18.712,23.787 C18.208,24.794 17.201,25.453 16,25.453 C14.838,25.453 13.792,24.755 13.288,23.787 C13.559,23.632 13.792,23.438 14.024,23.206 C14.528,22.702 15.225,22.392 15.961,22.392 C16.697,22.392 17.395,22.663 17.898,23.206 C18.169,23.438 18.441,23.632 18.712,23.787 z M8.174,18.673 C7.167,18.169 6.508,17.162 6.508,16 C6.508,14.838 7.206,13.792 8.174,13.327 C8.329,13.598 8.523,13.831 8.755,14.063 C9.259,14.567 9.569,15.264 9.569,16 C9.569,16.736 9.298,17.433 8.755,17.937 C8.523,18.169 8.329,18.402 8.174,18.673 z M16,25.956 C17.356,25.956 18.557,25.143 19.138,24.019 C19.603,24.213 20.068,24.329 20.61,24.329 C21.617,24.329 22.547,23.942 23.245,23.245 C23.942,22.547 24.329,21.617 24.329,20.61 C24.329,20.107 24.213,19.603 24.019,19.138 C25.182,18.557 25.956,17.395 25.956,16 C25.956,14.605 25.143,13.443 24.019,12.862 C24.213,12.397 24.329,11.893 24.329,11.39 C24.329,10.383 23.942,9.453 23.245,8.755 C22.547,8.019 21.579,7.632 20.61,7.632 C20.107,7.632 19.603,7.748 19.138,7.942 C18.557,6.78 17.395,5.966 16,5.966 C14.644,5.966 13.443,6.78 12.862,7.942 C12.397,7.748 11.893,7.632 11.39,7.632 C10.383,7.632 9.453,8.019 8.755,8.717 C8.058,9.414 7.671,10.383 7.671,11.351 C7.671,11.855 7.787,12.358 7.981,12.823 C6.818,13.404 6.044,14.567 6.044,15.961 C6.044,17.356 6.857,18.518 7.981,19.099 C7.787,19.564 7.671,20.068 7.671,20.571 C7.671,21.579 8.058,22.508 8.755,23.206 C9.453,23.903 10.383,24.291 11.39,24.291 C11.893,24.291 12.397,24.174 12.862,23.981 C13.443,25.182 14.644,25.956 16,25.956 z M19.448,23.09 C19.487,22.896 19.487,22.702 19.487,22.47 C19.487,20.804 20.843,19.487 22.47,19.487 C22.663,19.487 22.857,19.487 23.051,19.448 C23.206,19.797 23.283,20.184 23.283,20.61 C23.283,21.346 23.012,22.044 22.47,22.547 C21.966,23.051 21.269,23.361 20.533,23.361 C20.184,23.322 19.797,23.245 19.448,23.09 z M23.09,12.552 C22.896,12.513 22.702,12.513 22.508,12.513 C20.843,12.513 19.525,11.157 19.525,9.53 C19.525,9.337 19.525,9.143 19.487,8.91 C19.835,8.755 20.223,8.678 20.649,8.678 C21.385,8.678 22.082,8.949 22.586,9.492 C23.09,9.995 23.4,10.692 23.4,11.429 C23.361,11.777 23.245,12.165 23.09,12.552 z M12.552,8.872 C12.513,9.065 12.513,9.259 12.513,9.492 C12.513,11.157 11.157,12.475 9.53,12.475 C9.337,12.475 9.143,12.475 8.949,12.513 C8.794,12.165 8.717,11.777 8.717,11.351 C8.717,10.615 8.988,9.918 9.53,9.414 C10.034,8.91 10.731,8.6 11.467,8.6 C11.816,8.639 12.203,8.717 12.552,8.872 z M8.91,19.409 C9.104,19.448 9.298,19.448 9.492,19.448 C11.157,19.448 12.475,20.804 12.475,22.431 C12.475,22.625 12.475,22.818 12.513,23.051 C12.165,23.206 11.777,23.283 11.351,23.283 C10.615,23.283 9.918,23.012 9.414,22.47 C8.91,21.966 8.6,21.269 8.6,20.533 C8.639,20.184 8.755,19.797 8.91,19.409 z" fill="#FFE0CB"/>
  </g>
</svg>
