<?xml version="1.0" encoding="UTF-8"?>
<!DOCTYPE svg PUBLIC "-//W3C//DTD SVG 1.1//EN" "http://www.w3.org/Graphics/SVG/1.1/DTD/svg11.dtd">
<svg version="1.1" xmlns="http://www.w3.org/2000/svg" xmlns:xlink="http://www.w3.org/1999/xlink" x="0" y="0" width="16" height="16" viewBox="0, 0, 16, 16">
  <g id="Background">
    <rect x="0" y="0" width="16" height="16" fill="#000000" fill-opacity="0"/>
  </g>
  <g id="Layer_1">
    <path d="M0,8 C0,12.417 3.583,16 8,16 C12.417,16 16,12.417 16,8 C16,3.583 12.417,0 8,0 C3.583,0 0,3.564 0,8 z M0.833,8 C0.833,4.029 4.049,0.813 8,0.813 C11.951,0.813 15.167,4.029 15.167,8 C15.167,11.971 11.971,15.167 8,15.167 C4.029,15.167 0.833,11.951 0.833,8 z" fill="#4DB32E"/>
    <path d="M8,3.235 C8.581,3.235 9.104,3.583 9.356,4.068 C9.22,4.145 9.104,4.242 8.988,4.359 C8.736,4.61 8.387,4.765 8.019,4.765 C7.652,4.765 7.302,4.629 7.051,4.359 C6.935,4.242 6.819,4.145 6.683,4.068 C6.896,3.583 7.419,3.235 8,3.235 z M9.491,4.571 C9.491,4.629 9.491,4.688 9.491,4.746 C9.491,5.714 10.285,6.489 11.235,6.489 C11.293,6.489 11.351,6.489 11.409,6.489 C11.37,6.547 11.312,6.605 11.274,6.663 C10.925,7.012 10.731,7.477 10.731,7.98 C10.731,8.484 10.925,8.949 11.274,9.298 C11.332,9.356 11.37,9.414 11.409,9.472 C11.351,9.472 11.293,9.472 11.235,9.472 C10.267,9.472 9.491,10.247 9.491,11.215 C9.491,11.273 9.491,11.332 9.491,11.39 C9.434,11.351 9.375,11.293 9.317,11.254 C8.969,10.905 8.503,10.712 8,10.712 C7.497,10.712 7.031,10.905 6.683,11.254 C6.624,11.312 6.567,11.351 6.509,11.39 C6.509,11.332 6.509,11.273 6.509,11.215 C6.509,10.247 5.734,9.472 4.765,9.472 C4.707,9.472 4.649,9.472 4.591,9.472 C4.629,9.414 4.688,9.356 4.727,9.298 C5.075,8.949 5.269,8.484 5.269,7.98 C5.269,7.477 5.075,7.012 4.727,6.663 C4.668,6.605 4.629,6.547 4.591,6.489 C4.649,6.489 4.707,6.489 4.765,6.489 C5.734,6.489 6.509,5.714 6.509,4.746 C6.509,4.688 6.509,4.629 6.509,4.571 C6.567,4.61 6.624,4.668 6.683,4.707 C7.031,5.055 7.497,5.249 8,5.249 C8.503,5.249 8.969,5.055 9.317,4.707 C9.375,4.668 9.434,4.629 9.491,4.571 z M11.913,6.644 C12.417,6.896 12.746,7.399 12.746,7.98 C12.746,8.561 12.397,9.084 11.913,9.317 C11.835,9.181 11.738,9.065 11.623,8.949 C11.37,8.698 11.215,8.349 11.215,7.98 C11.215,7.612 11.351,7.264 11.623,7.012 C11.738,6.896 11.835,6.78 11.913,6.644 z M9.356,11.893 C9.104,12.397 8.601,12.726 8,12.726 C7.419,12.726 6.896,12.377 6.644,11.893 C6.78,11.816 6.896,11.719 7.012,11.603 C7.264,11.351 7.613,11.196 7.981,11.196 C8.349,11.196 8.698,11.332 8.949,11.603 C9.085,11.719 9.22,11.816 9.356,11.893 z M4.087,9.337 C3.583,9.084 3.254,8.581 3.254,8 C3.254,7.419 3.603,6.896 4.087,6.663 C4.165,6.799 4.261,6.915 4.378,7.031 C4.629,7.283 4.785,7.632 4.785,8 C4.785,8.368 4.649,8.716 4.378,8.969 C4.261,9.084 4.165,9.201 4.087,9.337 z M8,12.978 C8.678,12.978 9.278,12.571 9.569,12.009 C9.802,12.106 10.034,12.165 10.305,12.165 C10.809,12.165 11.274,11.971 11.623,11.622 C11.971,11.273 12.165,10.808 12.165,10.305 C12.165,10.054 12.106,9.801 12.009,9.569 C12.591,9.278 12.978,8.698 12.978,8 C12.978,7.302 12.571,6.721 12.009,6.431 C12.106,6.198 12.165,5.946 12.165,5.695 C12.165,5.191 11.971,4.726 11.623,4.377 C11.274,4.009 10.79,3.816 10.305,3.816 C10.054,3.816 9.802,3.874 9.569,3.971 C9.278,3.39 8.698,2.983 8,2.983 C7.322,2.983 6.721,3.39 6.431,3.971 C6.199,3.874 5.946,3.816 5.695,3.816 C5.192,3.816 4.727,4.009 4.378,4.359 C4.029,4.707 3.836,5.191 3.836,5.675 C3.836,5.927 3.894,6.179 3.99,6.411 C3.409,6.702 3.022,7.283 3.022,7.98 C3.022,8.678 3.428,9.259 3.99,9.549 C3.894,9.782 3.836,10.034 3.836,10.285 C3.836,10.79 4.029,11.254 4.378,11.603 C4.727,11.951 5.192,12.146 5.695,12.146 C5.946,12.146 6.199,12.087 6.431,11.99 C6.721,12.591 7.322,12.978 8,12.978 z M9.724,11.545 C9.743,11.448 9.743,11.351 9.743,11.235 C9.743,10.402 10.422,9.743 11.235,9.743 C11.332,9.743 11.429,9.743 11.526,9.724 C11.603,9.898 11.642,10.092 11.642,10.305 C11.642,10.673 11.506,11.022 11.235,11.273 C10.983,11.525 10.634,11.681 10.267,11.681 C10.092,11.661 9.899,11.622 9.724,11.545 z M11.545,6.276 C11.448,6.256 11.351,6.256 11.254,6.256 C10.422,6.256 9.762,5.578 9.762,4.765 C9.762,4.668 9.762,4.571 9.743,4.455 C9.917,4.377 10.111,4.339 10.325,4.339 C10.693,4.339 11.041,4.474 11.293,4.746 C11.545,4.997 11.7,5.346 11.7,5.714 C11.681,5.888 11.623,6.082 11.545,6.276 z M6.276,4.436 C6.256,4.532 6.256,4.629 6.256,4.746 C6.256,5.578 5.578,6.237 4.765,6.237 C4.668,6.237 4.571,6.237 4.475,6.256 C4.397,6.082 4.359,5.888 4.359,5.675 C4.359,5.307 4.494,4.959 4.765,4.707 C5.017,4.455 5.365,4.3 5.734,4.3 C5.908,4.319 6.102,4.359 6.276,4.436 z M4.455,9.705 C4.552,9.724 4.649,9.724 4.746,9.724 C5.578,9.724 6.238,10.402 6.238,11.215 C6.238,11.312 6.238,11.409 6.256,11.525 C6.082,11.603 5.889,11.641 5.675,11.641 C5.307,11.641 4.959,11.506 4.707,11.235 C4.455,10.983 4.3,10.634 4.3,10.266 C4.319,10.092 4.378,9.898 4.455,9.705 z" fill="#243F24"/>
  </g>
</svg>
