<?xml version="1.0" encoding="UTF-8"?>
<!DOCTYPE svg PUBLIC "-//W3C//DTD SVG 1.1//EN" "http://www.w3.org/Graphics/SVG/1.1/DTD/svg11.dtd">
<svg version="1.1" xmlns="http://www.w3.org/2000/svg" xmlns:xlink="http://www.w3.org/1999/xlink" x="0" y="0" width="16" height="16" viewBox="0, 0, 16, 16">
  <g id="Background">
    <rect x="0" y="0" width="16" height="16" fill="#000000" fill-opacity="0"/>
  </g>
  <g id="Layer_1">
    <path d="M8,4.013 L6.696,2.724 C6.221,2.298 5.615,2.047 4.979,2.013 C1.023,2.013 1,1.984 1,2.013 L1,7.013 L15,7.013 L15,4.013 L8,4.013 z" fill="#9AA7B0" opacity="0.804"/>
    <path d="M1,8.013 L16,8.013 L16,15.013 L1,15.013 z" fill="#DAA438" opacity="0.697"/>
    <g id="JCR" display="none">
      <g id="R" opacity="0.702">
        <path d="M10,10 L11,10 L11,15 L10,15 L10,10 z" fill="#231F20"/>
        <g>
          <path d="M12.25,10.5 C12.802,10.5 13.25,10.948 13.25,11.5" fill="#231F20"/>
          <path d="M12.25,10.5 C12.802,10.5 13.25,10.948 13.25,11.5" fill-opacity="0" stroke="#231F20" stroke-width="1"/>
        </g>
        <g>
          <path d="M13.25,11.5 C13.25,12.052 12.802,12.5 12.25,12.5" fill="#231F20"/>
          <path d="M13.25,11.5 C13.25,12.052 12.802,12.5 12.25,12.5" fill-opacity="0" stroke="#231F20" stroke-width="1"/>
        </g>
        <path d="M10.7,10 L12.4,10 L12.4,11 L10.7,11 L10.7,10 z" fill="#231F20"/>
        <path d="M10.6,12 L12.3,12 L12.3,13.016 L10.6,13.016 L10.6,12 z" fill="#231F20"/>
        <path d="M10.816,12.883 L11.523,12.175 L14.335,15 L12.932,14.998 L10.816,12.883 z" fill="#231F20"/>
      </g>
      <g id="C" opacity="0.697">
        <g>
          <path d="M6.5,11.5 C6.5,10.948 6.947,10.5 7.5,10.5" fill="#231F20"/>
          <path d="M6.5,11.5 C6.5,10.948 6.947,10.5 7.5,10.5" fill-opacity="0" stroke="#231F20" stroke-width="1"/>
        </g>
        <g>
          <path d="M7.5,14.5 C6.948,14.5 6.5,14.052 6.5,13.5" fill="#231F20"/>
          <path d="M7.5,14.5 C6.948,14.5 6.5,14.052 6.5,13.5" fill-opacity="0" stroke="#231F20" stroke-width="1"/>
        </g>
        <path d="M6,11.45 L7,11.45 L7,13.55 L6,13.55 L6,11.45 z" fill="#231F20"/>
        <path d="M7.45,14 L9,14 L9,15 L7.45,15 L7.45,14 z" fill="#231F20"/>
        <path d="M7.45,10 L9,10 L9,11 L7.45,11 L7.45,10 z" fill="#231F20"/>
      </g>
      <g id="J" opacity="0.701">
        <path d="M4,10 L5,10 L5,13.55 L4,13.55 L4,10 z" fill="#231F20"/>
        <path d="M2,14 L3.55,14 L3.55,15 L2,15 L2,14 z" fill="#231F20"/>
        <g>
          <path d="M4.5,13.5 C4.5,14.052 4.053,14.5 3.5,14.5" fill="#231F20"/>
          <path d="M4.5,13.5 C4.5,14.052 4.053,14.5 3.5,14.5" fill-opacity="0" stroke="#231F20" stroke-width="1"/>
        </g>
      </g>
    </g>
    <g display="none">
      <path d="M3.081,9.03 L4.044,9.03 L4.044,12.626 Q4.044,12.906 3.98,13.159 Q3.917,13.412 3.773,13.605 Q3.629,13.798 3.404,13.914 Q3.18,14.03 2.857,14.03 Q2.653,14.03 2.414,13.988 Q2.176,13.946 2,13.869 L2.211,13.082 Q2.393,13.173 2.625,13.173 Q2.92,13.173 3.001,12.956 Q3.081,12.738 3.081,12.38 z" fill="#231F20" opacity="0.702"/>
      <path d="M8.251,13.7 Q8.031,13.858 7.691,13.927 Q7.351,13.996 6.994,13.996 Q6.561,13.996 6.173,13.862 Q5.785,13.728 5.49,13.429 Q5.194,13.13 5.019,12.653 Q4.844,12.176 4.844,11.496 Q4.844,10.788 5.04,10.311 Q5.236,9.834 5.548,9.542 Q5.861,9.25 6.245,9.123 Q6.63,8.996 7.014,8.996 Q7.426,8.996 7.712,9.051 Q7.997,9.106 8.182,9.181 L7.997,9.978 Q7.839,9.902 7.622,9.868 Q7.406,9.834 7.097,9.834 Q6.527,9.834 6.18,10.239 Q5.833,10.644 5.833,11.496 Q5.833,11.867 5.916,12.172 Q5.998,12.478 6.166,12.694 Q6.334,12.911 6.585,13.031 Q6.836,13.151 7.166,13.151 Q7.475,13.151 7.687,13.089 Q7.9,13.027 8.058,12.931 z" fill="#231F20" opacity="0.702"/>
      <path d="M9.051,9.209 Q9.209,9.181 9.391,9.157 Q9.573,9.133 9.755,9.119 Q9.937,9.106 10.109,9.099 Q10.281,9.092 10.425,9.092 Q10.761,9.092 11.088,9.154 Q11.414,9.215 11.671,9.367 Q11.929,9.518 12.083,9.782 Q12.238,10.047 12.238,10.445 Q12.238,11.036 11.963,11.406 Q11.689,11.777 11.228,11.922 L11.565,12.134 L12.664,13.968 L11.579,13.968 L10.487,12.086 L9.992,11.997 L9.992,13.968 L9.051,13.968 z M10.494,9.93 Q10.349,9.93 10.208,9.937 Q10.068,9.944 9.992,9.964 L9.992,11.358 L10.39,11.358 Q10.782,11.358 11.015,11.18 Q11.249,11.001 11.249,10.589 Q11.249,10.28 11.057,10.105 Q10.864,9.93 10.494,9.93 z" fill="#231F20" opacity="0.702"/>
    </g>
    <path d="M3.176,9.063 L4.212,9.063 L4.212,12.633 Q4.212,12.892 4.142,13.144 Q4.072,13.396 3.921,13.599 Q3.771,13.802 3.526,13.928 Q3.281,14.054 2.931,14.054 Q2.707,14.054 2.451,14.008 Q2.196,13.963 2,13.879 L2.224,13.053 Q2.427,13.144 2.672,13.144 Q2.833,13.144 2.931,13.084 Q3.029,13.025 3.085,12.916 Q3.141,12.808 3.158,12.661 Q3.176,12.514 3.176,12.346 z" fill="#231F20" opacity="0.698"/>
    <path d="M9.077,13.753 Q8.846,13.914 8.468,13.987 Q8.09,14.061 7.691,14.061 Q7.222,14.061 6.792,13.921 Q6.361,13.781 6.029,13.473 Q5.696,13.165 5.5,12.682 Q5.304,12.199 5.304,11.513 Q5.304,10.799 5.528,10.312 Q5.752,9.826 6.102,9.528 Q6.452,9.231 6.879,9.098 Q7.306,8.965 7.719,8.965 Q8.174,8.965 8.486,9.021 Q8.797,9.077 9,9.154 L8.797,10.022 Q8.622,9.945 8.388,9.91 Q8.153,9.875 7.796,9.875 Q7.481,9.875 7.226,9.976 Q6.97,10.078 6.788,10.281 Q6.606,10.484 6.505,10.792 Q6.403,11.1 6.403,11.513 Q6.403,11.877 6.494,12.178 Q6.585,12.479 6.767,12.696 Q6.949,12.913 7.229,13.032 Q7.509,13.151 7.88,13.151 Q8.223,13.151 8.458,13.088 Q8.692,13.025 8.874,12.927 z" fill="#231F20" opacity="0.698"/>
    <path d="M10.169,9.147 Q10.337,9.119 10.537,9.094 Q10.736,9.07 10.939,9.056 Q11.142,9.042 11.335,9.035 Q11.527,9.028 11.688,9.028 Q12.059,9.028 12.42,9.091 Q12.78,9.154 13.064,9.308 Q13.347,9.462 13.522,9.731 Q13.697,10.001 13.697,10.407 Q13.697,11.009 13.4,11.397 Q13.102,11.786 12.577,11.926 L12.948,12.143 L14.173,13.998 L12.969,13.998 L11.751,12.101 L11.205,12.017 L11.205,13.998 L10.169,13.998 z M11.758,9.938 Q11.597,9.938 11.447,9.941 Q11.296,9.945 11.205,9.966 L11.205,11.317 L11.646,11.317 Q12.087,11.317 12.343,11.149 Q12.598,10.981 12.598,10.568 Q12.598,10.26 12.381,10.099 Q12.164,9.938 11.758,9.938 z" fill="#231F20" opacity="0.698"/>
  </g>
</svg>
