<?xml version="1.0" encoding="UTF-8"?>
<!DOCTYPE svg PUBLIC "-//W3C//DTD SVG 1.1//EN" "http://www.w3.org/Graphics/SVG/1.1/DTD/svg11.dtd">
<svg version="1.1" xmlns="http://www.w3.org/2000/svg" xmlns:xlink="http://www.w3.org/1999/xlink" x="0" y="0" width="32" height="32" viewBox="0, 0, 16, 16">
  <g id="Background">
    <rect x="0" y="0" width="16" height="16" fill="#000000" fill-opacity="0"/>
  </g>
  <g id="Layer_1">
    <path d="M1,13.5 L15,13.5 L15,4.5 L7.985,4.5 L6.696,3.211 C6.222,2.786 5.616,2.535 4.979,2.5 L1.051,2.5 C1.023,2.5 1,2.523 1,2.551 L1,2.551 L1,13.5 z" fill="#40B6E0" id="sourceRoot" opacity="0.6" display="none"/>
    <g id="ResourcesRoot">
      <g opacity="0.7">
        <path d="M4.979,2 C5.616,2.035 6.222,2.286 6.696,2.711 L7.985,4 L15,4 L15,7.149 C14.051,6.946 14.71,7.063 13,6.969 C10.788,6.969 8.991,7.469 8.991,7.965 L9.002,7.996 L8.991,7.996 L8.991,13 L1,13 L1,2.051 C1,2.023 1.023,2 1.051,2 L4.979,2 z" fill="#9AA7B0"/>
      </g>
      <path d="M10,12 L16,12 L16,13 L10,13 z" fill="#D9A343" display="none"/>
      <path d="M10,14 L16,14 L16,15 L10,15 z" fill="#D9A343" display="none"/>
      <path d="M10,10 L16,10 L16,11 L10,11 z" fill="#D9A343" display="none"/>
      <path d="M10,8 L16,8 L16,9 L10,9 z" fill="#D9A343" display="none"/>
    </g>
    <path d="M16,13.252 L15.995,13.252 L16,13.27 C16,13.634 14.656,14 13,14 C11.345,14 10,13.634 10,13.27 L10.006,13.252 L10,13.252 L10,12.221 L10.174,12.221 C10.587,12.478 11.693,12.628 13,12.628 C14.306,12.628 15.414,12.478 15.826,12.221 L16,12.221 L16,13.252 z M13,11.935 C11.345,11.935 10,11.739 10,11.376 L10.006,11.357 L10,11.357 L10,10.211 L10.174,10.211 C10.587,10.467 11.693,10.672 13,10.672 C14.306,10.672 15.414,10.467 15.826,10.211 L16,10.211 L16,11.357 L15.995,11.357 L16,11.376 C16,11.739 14.656,11.935 13,11.935 z M13,9.991 C11.345,9.991 10,9.65 10,9.287 L10.006,9.265 L10,9.265 L10,8.752 L10.008,8.752 L10,8.73 C10,8.366 11.345,8 13,8 C14.656,8 16,8.366 16,8.73 L15.992,8.752 L16,8.752 L16,9.265 L15.995,9.265 L16,9.287 C16,9.65 14.656,9.991 13,9.991" fill="#40B6E0" fill-opacity="0.855" display="none"/>
    <g id="dbms">
      <path d="M12.929,11.221 C12.592,11.218 12.255,11.194 11.92,11.149 C11.326,11.08 10.742,10.941 10.18,10.736 C9.996,10.678 9.876,10.503 9.888,10.311 C9.87,10.194 9.909,10.076 9.993,9.992 C10.078,9.909 10.197,9.872 10.314,9.892 C10.511,9.95 10.704,10.025 10.903,10.077 C11.349,10.194 11.805,10.275 12.265,10.319 C12.814,10.367 13.366,10.364 13.914,10.311 C14.386,10.275 14.854,10.191 15.31,10.06 C15.391,10.036 15.471,10.003 15.552,9.977 C15.65,9.951 15.754,9.969 15.837,10.027 C15.92,10.085 15.974,10.176 15.984,10.276 C16.042,10.487 15.939,10.708 15.742,10.801 C15.313,10.962 14.867,11.069 14.413,11.121 C13.921,11.184 13.425,11.217 12.929,11.221 z" fill="#40B6E0" opacity="0.7"/>
      <path d="M15.997,8.885 C15.997,8.695 15.871,8.528 15.689,8.474 C15.121,8.273 14.532,8.136 13.933,8.066 C13.578,8.02 13.221,7.998 12.864,8 C12.409,8.004 11.954,8.035 11.503,8.094 C11.037,8.145 10.579,8.254 10.139,8.419 C9.988,8.49 9.892,8.642 9.893,8.809 C9.89,8.836 9.888,8.863 9.889,8.89 C9.889,9.081 10.014,9.248 10.197,9.301 C10.765,9.503 11.354,9.64 11.952,9.71 C12.307,9.756 12.664,9.778 13.021,9.776 C13.476,9.772 13.931,9.74 14.383,9.682 C14.849,9.63 15.307,9.521 15.746,9.357 C15.897,9.286 15.993,9.134 15.992,8.967 C15.996,8.94 15.997,8.913 15.997,8.885 z" fill="#40B6E0" opacity="0.7"/>
      <path d="M12.964,14.11 C12.388,14.106 11.814,14.045 11.25,13.927 C10.882,13.852 10.52,13.751 10.167,13.623 C10.007,13.564 9.898,13.415 9.89,13.245 C9.868,13.076 9.941,12.909 10.081,12.812 C10.172,12.758 10.284,12.752 10.38,12.798 C10.863,12.972 11.363,13.095 11.872,13.166 C12.436,13.247 13.008,13.268 13.576,13.228 C14.193,13.205 14.805,13.102 15.395,12.921 C15.464,12.891 15.537,12.868 15.611,12.853 C15.81,12.845 15.979,12.997 15.991,13.196 C16.033,13.401 15.927,13.608 15.737,13.694 C15.452,13.802 15.158,13.883 14.858,13.937 C14.233,14.049 13.599,14.107 12.964,14.11 z" fill="#40B6E0" opacity="0.7"/>
      <path d="M12.964,12.665 C12.388,12.662 11.814,12.601 11.25,12.483 C10.882,12.408 10.52,12.307 10.167,12.179 C10.007,12.12 9.898,11.971 9.89,11.8 C9.868,11.632 9.941,11.465 10.081,11.368 C10.172,11.313 10.284,11.308 10.38,11.354 C10.863,11.528 11.363,11.651 11.872,11.722 C12.436,11.803 13.008,11.824 13.576,11.784 C14.193,11.761 14.805,11.658 15.395,11.477 C15.464,11.447 15.537,11.424 15.611,11.409 C15.81,11.4 15.979,11.553 15.991,11.752 C16.033,11.957 15.927,12.164 15.737,12.25 C15.452,12.358 15.158,12.439 14.858,12.493 C14.233,12.605 13.599,12.663 12.964,12.665 z" fill="#40B6E0" opacity="0.7"/>
    </g>
  </g>
</svg>
