<?xml version="1.0" encoding="UTF-8"?>
<!DOCTYPE svg PUBLIC "-//W3C//DTD SVG 1.1//EN" "http://www.w3.org/Graphics/SVG/1.1/DTD/svg11.dtd">
<svg version="1.1" xmlns="http://www.w3.org/2000/svg" xmlns:xlink="http://www.w3.org/1999/xlink" x="0" y="0" width="16" height="16" viewBox="0, 0, 16, 16">
  <g id="Background">
    <rect x="0" y="0" width="16" height="16" fill="#000000" fill-opacity="0"/>
  </g>
  <g id="Layer_1">
    <g id="_Group_" opacity="0.5">
      <path d="M15,8 C15,11.866 11.866,15 8,15 C4.134,15 1,11.866 1,8 C1,4.134 4.134,1 8,1 C11.866,1 15,4.134 15,8 z" fill="#1ED761"/>
    </g>
    <g opacity="0.6">
      <path d="M8.799,6.176 Q9.81,6.176 10.374,6.909 Q10.938,7.641 10.938,8.964 Q10.938,10.292 10.366,11.032 Q9.795,11.772 8.779,11.772 Q7.754,11.772 7.188,11.034 L7.109,11.034 L6.899,11.674 L6.04,11.674 L6.04,4.076 L7.188,4.076 L7.188,5.883 Q7.188,6.083 7.168,6.479 Q7.148,6.874 7.139,6.982 L7.188,6.982 Q7.734,6.176 8.799,6.176 z M8.501,7.114 Q7.808,7.114 7.502,7.521 Q7.197,7.929 7.188,8.886 L7.188,8.964 Q7.188,9.95 7.5,10.392 Q7.812,10.834 8.521,10.834 Q9.131,10.834 9.446,10.351 Q9.761,9.867 9.761,8.954 Q9.761,7.114 8.501,7.114 z" fill="#221F20"/>
    </g>
  </g>
</svg>
