<?xml version="1.0" encoding="UTF-8"?>
<!DOCTYPE svg PUBLIC "-//W3C//DTD SVG 1.1//EN" "http://www.w3.org/Graphics/SVG/1.1/DTD/svg11.dtd">
<svg version="1.1" xmlns="http://www.w3.org/2000/svg" xmlns:xlink="http://www.w3.org/1999/xlink" x="0" y="0" width="16" height="16" viewBox="0, 0, 16, 16">
  <g id="Background">
    <rect x="0" y="0" width="16" height="16" fill="#000000" fill-opacity="0"/>
  </g>
  <g id="Layer_1">
    <g id="_Group_" opacity="0.5">
      <path d="M15,8 C15,11.866 11.866,15 8,15 C4.134,15 1,11.866 1,8 C1,4.134 4.134,1 8,1 C11.866,1 15,4.134 15,8 z" fill="#00ADF3"/>
    </g>
    <g opacity="0.6">
      <path d="M7.188,11.347 Q6.177,11.347 5.61,10.615 Q5.044,9.883 5.044,8.559 Q5.044,7.232 5.617,6.491 Q6.192,5.752 7.207,5.752 Q8.271,5.752 8.828,6.538 L8.887,6.538 Q8.804,5.957 8.804,5.62 L8.804,3.652 L9.956,3.652 L9.956,11.25 L9.057,11.25 L8.858,10.542 L8.804,10.542 Q8.252,11.347 7.188,11.347 z M7.495,10.42 Q8.203,10.42 8.526,10.022 Q8.847,9.624 8.858,8.731 L8.858,8.569 Q8.858,7.549 8.526,7.119 Q8.193,6.689 7.485,6.689 Q6.88,6.689 6.552,7.18 Q6.226,7.671 6.226,8.579 Q6.226,9.477 6.543,9.948 Q6.86,10.42 7.495,10.42 z" fill="#221F20"/>
    </g>
  </g>
</svg>
