<?xml version="1.0" encoding="UTF-8"?>
<!DOCTYPE svg PUBLIC "-//W3C//DTD SVG 1.1//EN" "http://www.w3.org/Graphics/SVG/1.1/DTD/svg11.dtd">
<svg version="1.1" xmlns="http://www.w3.org/2000/svg" xmlns:xlink="http://www.w3.org/1999/xlink" x="0" y="0" width="32" height="32" viewBox="0, 0, 32, 32">
  <g id="Background">
    <rect x="0" y="0" width="32" height="32" fill="#000000" fill-opacity="0"/>
  </g>
  <g id="Layer_1">
    <g id="_Group_" opacity="0.5">
      <path d="M30,16 C30,23.732 23.732,30 16,30 C8.268,30 2,23.732 2,16 C2,8.268 8.268,2 16,2 C23.732,2 30,8.268 30,16 z" fill="#217CA3"/>
    </g>
    <g opacity="0.6">
      <path d="M12.61,12.17 L13.99,12.17 L13.99,10.29 L16.59,9.55 L16.59,12.17 L19.03,12.17 L19.03,14.37 L16.59,14.37 L16.59,18.21 Q16.59,19.25 16.8,19.7 Q17.01,20.15 17.59,20.15 Q17.99,20.15 18.28,20.07 Q18.57,19.99 18.93,19.83 L19.39,21.83 Q18.85,22.09 18.13,22.27 Q17.41,22.45 16.67,22.45 Q15.29,22.45 14.64,21.74 Q13.99,21.03 13.99,19.41 L13.99,14.37 L12.61,14.37 z" fill="#211F20"/>
    </g>
  </g>
</svg>
