<?xml version="1.0" encoding="UTF-8"?>
<!DOCTYPE svg PUBLIC "-//W3C//DTD SVG 1.1//EN" "http://www.w3.org/Graphics/SVG/1.1/DTD/svg11.dtd">
<svg version="1.1" xmlns="http://www.w3.org/2000/svg" xmlns:xlink="http://www.w3.org/1999/xlink" x="0" y="0" width="32" height="32" viewBox="0, 0, 32, 32">
  <g id="Background">
    <rect x="0" y="0" width="32" height="32" fill="#000000" fill-opacity="0"/>
  </g>
  <g id="Layer_1">
    <g>
      <g id="_Group_" opacity="0.5">
        <path d="M30,16 C30,23.732 23.732,30 16,30 C8.268,30 2,23.732 2,16 C2,8.268 8.268,2 16,2 C23.732,2 30,8.268 30,16 z" fill="#F2D300"/>
      </g>
      <g opacity="0.6">
        <path d="M16.05,16.406 L21.27,16.406 L21.27,22.646 Q20.43,23.346 19.26,23.666 Q18.09,23.986 16.95,23.986 Q15.61,23.986 14.46,23.566 Q13.31,23.146 12.47,22.256 Q11.63,21.366 11.15,19.986 Q10.67,18.606 10.67,16.706 Q10.67,14.726 11.24,13.336 Q11.81,11.946 12.74,11.076 Q13.67,10.206 14.83,9.816 Q15.99,9.426 17.19,9.426 Q18.39,9.426 19.3,9.606 Q20.21,9.786 20.75,9.986 L20.19,12.286 Q19.69,12.086 19.07,11.976 Q18.45,11.866 17.49,11.866 Q16.63,11.866 15.91,12.126 Q15.19,12.386 14.66,12.976 Q14.13,13.566 13.84,14.486 Q13.55,15.406 13.55,16.726 Q13.55,17.986 13.83,18.896 Q14.11,19.806 14.61,20.396 Q15.11,20.986 15.78,21.266 Q16.45,21.546 17.21,21.546 Q17.73,21.546 18.23,21.416 Q18.73,21.286 19.07,21.026 L19.07,18.386 L16.05,18.066 z" fill="#211F20"/>
      </g>
    </g>
  </g>
</svg>
