<?xml version="1.0" encoding="UTF-8"?>
<!DOCTYPE svg PUBLIC "-//W3C//DTD SVG 1.1//EN" "http://www.w3.org/Graphics/SVG/1.1/DTD/svg11.dtd">
<svg version="1.1" xmlns="http://www.w3.org/2000/svg" xmlns:xlink="http://www.w3.org/1999/xlink" x="0" y="0" width="32" height="32" viewBox="0, 0, 32, 32">
  <g id="Background">
    <rect x="0" y="0" width="32" height="32" fill="#000000" fill-opacity="0"/>
  </g>
  <g id="Layer_1">
    <g>
      <g id="_Group_" opacity="0.5">
        <path d="M30,16 C30,23.732 23.732,30 16,30 C8.268,30 2,23.732 2,16 C2,8.268 8.268,2 16,2 C23.732,2 30,8.268 30,16 z" fill="#34870E"/>
      </g>
      <g opacity="0.6">
        <path d="M14.26,11.5 L14.26,17.18 Q14.26,18.4 14.55,18.94 Q14.84,19.48 15.68,19.48 Q16.42,19.48 16.91,19.04 Q17.4,18.6 17.64,17.96 L17.64,11.5 L20.24,11.5 L20.24,18.46 Q20.24,19.28 20.32,20.07 Q20.4,20.86 20.56,21.5 L18.6,21.5 L18.14,20.02 L18.06,20.02 Q17.6,20.78 16.78,21.28 Q15.96,21.78 14.84,21.78 Q14.08,21.78 13.48,21.58 Q12.88,21.38 12.48,20.92 Q12.08,20.46 11.87,19.68 Q11.66,18.9 11.66,17.72 L11.66,11.5 z" fill="#211F20"/>
      </g>
    </g>
  </g>
</svg>
