<?xml version="1.0" encoding="UTF-8"?>
<!DOCTYPE svg PUBLIC "-//W3C//DTD SVG 1.1//EN" "http://www.w3.org/Graphics/SVG/1.1/DTD/svg11.dtd">
<svg version="1.1" xmlns="http://www.w3.org/2000/svg" xmlns:xlink="http://www.w3.org/1999/xlink" x="0" y="0" width="16" height="16" viewBox="0, 0, 16, 16">
  <g id="Background">
    <rect x="0" y="0" width="16" height="16" fill="#000000" fill-opacity="0"/>
  </g>
  <g id="Layer_1">
    <g id="_Group_" opacity="0.5">
      <path d="M15,8 C15,11.866 11.866,15 8,15 C4.134,15 1,11.866 1,8 C1,4.134 4.134,1 8,1 C11.866,1 15,4.134 15,8 z" fill="#F2D300"/>
    </g>
    <g opacity="0.6">
      <path d="M8.025,8.203 L10.635,8.203 L10.635,11.323 Q10.215,11.673 9.63,11.833 Q9.045,11.993 8.475,11.993 Q7.805,11.993 7.23,11.783 Q6.655,11.573 6.235,11.128 Q5.815,10.683 5.575,9.993 Q5.335,9.303 5.335,8.353 Q5.335,7.363 5.62,6.668 Q5.905,5.973 6.37,5.538 Q6.835,5.103 7.415,4.908 Q7.995,4.713 8.595,4.713 Q9.195,4.713 9.65,4.803 Q10.105,4.893 10.375,4.993 L10.095,6.143 Q9.845,6.043 9.535,5.988 Q9.225,5.933 8.745,5.933 Q8.315,5.933 7.955,6.063 Q7.595,6.193 7.33,6.488 Q7.065,6.783 6.92,7.243 Q6.775,7.703 6.775,8.363 Q6.775,8.993 6.915,9.448 Q7.055,9.903 7.305,10.198 Q7.555,10.493 7.89,10.633 Q8.225,10.773 8.605,10.773 Q8.865,10.773 9.115,10.708 Q9.365,10.643 9.535,10.513 L9.535,9.193 L8.025,9.033 z" fill="#211F20"/>
    </g>
  </g>
</svg>
