<?xml version="1.0" encoding="UTF-8"?>
<!DOCTYPE svg PUBLIC "-//W3C//DTD SVG 1.1//EN" "http://www.w3.org/Graphics/SVG/1.1/DTD/svg11.dtd">
<svg version="1.1" xmlns="http://www.w3.org/2000/svg" xmlns:xlink="http://www.w3.org/1999/xlink" x="0" y="0" width="16" height="16" viewBox="0, 0, 16, 16">
  <g id="Background">
    <rect x="0" y="0" width="16" height="16" fill="#000000" fill-opacity="0"/>
  </g>
  <g id="Layer_1">
    <g id="_Group_" opacity="0.5">
      <path d="M15,8 C15,11.866 11.866,15 8,15 C4.134,15 1,11.866 1,8 C1,4.134 4.134,1 8,1 C11.866,1 15,4.134 15,8 z" fill="#217CA3"/>
    </g>
    <g opacity="0.6">
      <path d="M6.305,6.085 L6.995,6.085 L6.995,5.145 L8.295,4.775 L8.295,6.085 L9.515,6.085 L9.515,7.185 L8.295,7.185 L8.295,9.105 Q8.295,9.625 8.4,9.85 Q8.505,10.075 8.795,10.075 Q8.995,10.075 9.14,10.035 Q9.285,9.995 9.465,9.915 L9.695,10.915 Q9.425,11.045 9.065,11.135 Q8.705,11.225 8.335,11.225 Q7.645,11.225 7.32,10.87 Q6.995,10.515 6.995,9.705 L6.995,7.185 L6.305,7.185 z" fill="#211F20"/>
    </g>
  </g>
</svg>
