<?xml version="1.0" encoding="UTF-8"?>
<!DOCTYPE svg PUBLIC "-//W3C//DTD SVG 1.1//EN" "http://www.w3.org/Graphics/SVG/1.1/DTD/svg11.dtd">
<svg version="1.1" xmlns="http://www.w3.org/2000/svg" xmlns:xlink="http://www.w3.org/1999/xlink" x="0" y="0" width="16" height="16" viewBox="0, 0, 16, 16">
  <g id="Background">
    <rect x="0" y="0" width="16" height="16" fill="#000000" fill-opacity="0"/>
  </g>
  <g id="Layer_1">
    <path d="M1,9 L16,9 L16,16 L1,16 z" fill="#62B543" opacity="0.6"/>
    <g opacity="0.6">
      <path d="M11,10 L12,10 L12,14 L14,14 L14,15 L11,15 L11,10 z" fill="#231F20"/>
      <path d="M8,11 L7,11 L7,10 L10,10 L10,11 L9,11 L9,15 L8,15 L8,11 z" fill="#231F20"/>
      <path d="M2,10 L3,10 L3,12 L5,12 L5,10 L6,10 L6,15 L5,15 L5,13 L3,13 L3,15 L2,15 L2,10 z" fill="#231F20"/>
    </g>
    <g>
      <path d="M6,0 L2,4 L6,4 L6,0 z" fill="#9AA7B0" opacity="0.7"/>
      <path d="M7,0 L7,4 L7,5 L6,5 L2,5 L2,8 L13,8 L13,0 L7,0 z" fill="#9AA7B0" opacity="0.7"/>
    </g>
  </g>
</svg>
