<?xml version="1.0" encoding="UTF-8"?>
<!DOCTYPE svg PUBLIC "-//W3C//DTD SVG 1.1//EN" "http://www.w3.org/Graphics/SVG/1.1/DTD/svg11.dtd">
<svg version="1.1" xmlns="http://www.w3.org/2000/svg" xmlns:xlink="http://www.w3.org/1999/xlink" x="0" y="0" width="16" height="16" viewBox="0, 0, 32, 32">
  <g id="Background">
    <rect x="0" y="0" width="32" height="32" fill="#000000" fill-opacity="0"/>
  </g>
  <g id="Layer_1">
    <g>
      <path d="M2,18 L32,18 L32,32 L2,32 z" fill="#62B543" opacity="0.6"/>
      <g opacity="0.6">
        <path d="M22,20 L24,20 L24,28 L28,28 L28,30 L22,30 L22,20 z" fill="#231F20"/>
        <path d="M16,22 L14,22 L14,20 L20,20 L20,22 L18,22 L18,30 L16,30 L16,22 z" fill="#231F20"/>
        <path d="M4,20 L6,20 L6,24 L10,24 L10,20 L12,20 L12,30 L10,30 L10,26 L6,26 L6,30 L4,30 L4,20 z" fill="#231F20"/>
      </g>
      <g>
        <path d="M12,0 L4,8 L12,8 L12,0 z" fill="#9AA7B0" opacity="0.7"/>
        <path d="M14,0 L14,8 L14,10 L12,10 L4,10 L4,16 L26,16 L26,0 L14,0 z" fill="#9AA7B0" opacity="0.7"/>
      </g>
    </g>
  </g>
</svg>
