<?xml version="1.0" encoding="UTF-8"?>
<!DOCTYPE svg PUBLIC "-//W3C//DTD SVG 1.1//EN" "http://www.w3.org/Graphics/SVG/1.1/DTD/svg11.dtd">
<svg version="1.1" xmlns="http://www.w3.org/2000/svg" xmlns:xlink="http://www.w3.org/1999/xlink" x="0" y="0" width="16" height="16" viewBox="0, 0, 32, 32">
  <g id="Background">
    <rect x="0" y="0" width="32" height="32" fill="#000000" fill-opacity="0"/>
  </g>
  <g id="Layer_1">
    <g>
      <g id="_Group_" opacity="0.5">
        <path d="M30,16 C30,23.732 23.732,30 16,30 C8.268,30 2,23.732 2,16 C2,8.268 8.268,2 16,2 C23.732,2 30,8.268 30,16 z" fill="#00ADF3"/>
      </g>
      <g opacity="0.6">
        <path d="M14.375,22.695 Q12.354,22.695 11.221,21.23 Q10.088,19.766 10.088,17.119 Q10.088,14.463 11.235,12.983 Q12.383,11.504 14.414,11.504 Q16.543,11.504 17.656,13.076 L17.773,13.076 Q17.607,11.914 17.607,11.24 L17.607,7.305 L19.912,7.305 L19.912,22.5 L18.115,22.5 L17.715,21.084 L17.607,21.084 Q16.504,22.695 14.375,22.695 z M14.99,20.84 Q16.406,20.84 17.051,20.044 Q17.695,19.248 17.715,17.461 L17.715,17.139 Q17.715,15.098 17.051,14.238 Q16.387,13.379 14.971,13.379 Q13.76,13.379 13.105,14.36 Q12.451,15.342 12.451,17.158 Q12.451,18.955 13.086,19.897 Q13.721,20.84 14.99,20.84 z" fill="#221F20"/>
      </g>
    </g>
  </g>
</svg>
