<?xml version="1.0" encoding="UTF-8"?>
<!DOCTYPE svg PUBLIC "-//W3C//DTD SVG 1.1//EN" "http://www.w3.org/Graphics/SVG/1.1/DTD/svg11.dtd">
<svg version="1.1" xmlns="http://www.w3.org/2000/svg" xmlns:xlink="http://www.w3.org/1999/xlink" x="0" y="0" width="16" height="16" viewBox="0, 0, 16, 16">
  <g id="Background">
    <rect x="0" y="0" width="16" height="16" fill="#000000" fill-opacity="0"/>
  </g>
  <g id="Layer_1">
    <g id="_Group_" opacity="0.5">
      <path d="M15,8 C15,11.866 11.866,15 8,15 C4.134,15 1,11.866 1,8 C1,4.134 4.134,1 8,1 C11.866,1 15,4.134 15,8 z" fill="#F37B00"/>
    </g>
    <g opacity="0.6">
      <path d="M10.556,7.99 Q10.556,9.314 9.877,10.056 Q9.198,10.798 7.988,10.798 Q7.231,10.798 6.65,10.456 Q6.069,10.115 5.756,9.474 Q5.444,8.835 5.444,7.99 Q5.444,6.677 6.117,5.939 Q6.792,5.202 8.017,5.202 Q9.189,5.202 9.873,5.957 Q10.556,6.711 10.556,7.99 z M6.626,7.99 Q6.626,9.861 8.007,9.861 Q9.375,9.861 9.375,7.99 Q9.375,6.14 7.997,6.14 Q7.275,6.14 6.95,6.618 Q6.626,7.096 6.626,7.99 z" fill="#221F20"/>
    </g>
  </g>
</svg>
