<?xml version="1.0" encoding="UTF-8"?>
<!DOCTYPE svg PUBLIC "-//W3C//DTD SVG 1.1//EN" "http://www.w3.org/Graphics/SVG/1.1/DTD/svg11.dtd">
<svg version="1.1" xmlns="http://www.w3.org/2000/svg" xmlns:xlink="http://www.w3.org/1999/xlink" x="0" y="0" width="16" height="16" viewBox="0, 0, 16, 16">
  <g id="Background">
    <rect x="0" y="0" width="16" height="16" fill="#000000" fill-opacity="0"/>
  </g>
  <g id="Layer_1">
    <g id="_Group_" opacity="0.5">
      <path d="M15,8 C15,11.866 11.866,15 8,15 C4.134,15 1,11.866 1,8 C1,4.134 4.134,1 8,1 C11.866,1 15,4.134 15,8 z" fill="#34870E"/>
    </g>
    <g opacity="0.6">
      <path d="M7.13,5.75 L7.13,8.59 Q7.13,9.2 7.275,9.47 Q7.42,9.74 7.84,9.74 Q8.21,9.74 8.455,9.52 Q8.7,9.3 8.82,8.98 L8.82,5.75 L10.12,5.75 L10.12,9.23 Q10.12,9.64 10.16,10.035 Q10.2,10.43 10.28,10.75 L9.3,10.75 L9.07,10.01 L9.03,10.01 Q8.8,10.39 8.39,10.64 Q7.98,10.89 7.42,10.89 Q7.04,10.89 6.74,10.79 Q6.44,10.69 6.24,10.46 Q6.04,10.23 5.935,9.84 Q5.83,9.45 5.83,8.86 L5.83,5.75 z" fill="#211F20"/>
    </g>
  </g>
</svg>
